<svg width="22" height="22" viewBox="0 0 22 22" fill="none" xmlns="http://www.w3.org/2000/svg">
<path fill-rule="evenodd" clip-rule="evenodd" d="M10.6866 1.5986C8.54623 1.5986 6.81113 3.28565 6.81113 5.36673C6.81113 7.44781 8.54623 9.13485 10.6866 9.13485C12.8269 9.13485 14.562 7.44781 14.562 5.36673C14.562 3.28565 12.8269 1.5986 10.6866 1.5986ZM5.16699 5.36673C5.16699 2.40277 7.6382 0 10.6866 0C13.735 0 16.2062 2.40277 16.2062 5.36673C16.2062 8.33069 13.735 10.7335 10.6866 10.7335C7.6382 10.7335 5.16699 8.33069 5.16699 5.36673Z" fill="#7A622F"/>
<path fill-rule="evenodd" clip-rule="evenodd" d="M2.25748 15.8966C3.96436 14.1235 6.74033 12.7888 11 12.7888C15.2597 12.7888 18.0357 14.1235 19.7426 15.8966C21.428 17.6473 22.0001 19.7531 22.0001 21.2005C22.0001 21.6419 21.632 21.9998 21.178 21.9998H0.822066C0.368052 21.9998 0 21.6419 0 21.2005C0 19.7531 0.57211 17.6473 2.25748 15.8966ZM1.71404 20.4012H20.286C20.115 19.3752 19.609 18.0971 18.5422 16.989C17.1957 15.5902 14.8827 14.3874 11 14.3874C7.11736 14.3874 4.80435 15.5902 3.45784 16.989C2.39104 18.0971 1.88511 19.3752 1.71404 20.4012Z" fill="#7A622F"/>
</svg>
