<svg width="154" height="154" viewBox="0 0 154 154" fill="none" xmlns="http://www.w3.org/2000/svg">
<mask id="path-1-inside-1_136_207" fill="white">
<path fill-rule="evenodd" clip-rule="evenodd" d="M77 0C34.4741 0 0 34.4741 0 77C0 119.526 34.4741 154 77 154C119.526 154 154 119.526 154 77C154 34.4741 119.526 0 77 0ZM77 34.7742C53.6793 34.7742 34.7742 53.6793 34.7742 77C34.7742 100.321 53.6793 119.226 77 119.226C100.321 119.226 119.226 100.321 119.226 77C119.226 53.6793 100.321 34.7742 77 34.7742Z"/>
</mask>
<path fill-rule="evenodd" clip-rule="evenodd" d="M77 0C34.4741 0 0 34.4741 0 77C0 119.526 34.4741 154 77 154C119.526 154 154 119.526 154 77C154 34.4741 119.526 0 77 0ZM77 34.7742C53.6793 34.7742 34.7742 53.6793 34.7742 77C34.7742 100.321 53.6793 119.226 77 119.226C100.321 119.226 119.226 100.321 119.226 77C119.226 53.6793 100.321 34.7742 77 34.7742Z" fill="#DDBC7A"/>
<path d="M1 77C1 35.0264 35.0264 1 77 1V-1C33.9218 -1 -1 33.9218 -1 77H1ZM77 153C35.0264 153 1 118.974 1 77H-1C-1 120.078 33.9218 155 77 155V153ZM153 77C153 118.974 118.974 153 77 153V155C120.078 155 155 120.078 155 77H153ZM77 1C118.974 1 153 35.0264 153 77H155C155 33.9218 120.078 -1 77 -1V1ZM35.7742 77C35.7742 54.2316 54.2316 35.7742 77 35.7742V33.7742C53.127 33.7742 33.7742 53.127 33.7742 77H35.7742ZM77 118.226C54.2316 118.226 35.7742 99.7684 35.7742 77H33.7742C33.7742 100.873 53.127 120.226 77 120.226V118.226ZM118.226 77C118.226 99.7684 99.7684 118.226 77 118.226V120.226C100.873 120.226 120.226 100.873 120.226 77H118.226ZM77 35.7742C99.7684 35.7742 118.226 54.2316 118.226 77H120.226C120.226 53.127 100.873 33.7742 77 33.7742V35.7742Z" fill="#E1E1E1" mask="url(#path-1-inside-1_136_207)"/>
<rect x="66.5676" y="66.5676" width="20.8645" height="20.8645" rx="10.4323" fill="#DDBC7A"/>
<g clip-path="url(#clip0_136_207)">
<path d="M25.5225 94.8952L14.8796 97.5664L13.8405 93.4306C13.6661 92.7332 13.6312 92.1055 13.7358 91.5336C13.8405 90.9617 14.0636 90.4875 14.4124 90.0969C14.7611 89.7063 15.2144 89.4483 15.7793 89.3018C16.2954 89.1693 16.7906 89.1972 17.2649 89.3786C17.7391 89.5599 18.1506 89.8807 18.4993 90.334C18.848 90.7874 19.1131 91.3662 19.2874 92.0567L19.9291 94.6163L19.1967 94.7976L18.4854 91.973C18.304 91.2477 18.2622 90.5851 18.3668 89.9853C18.4714 89.3855 18.7016 88.8764 19.0503 88.4719C19.399 88.0674 19.8802 87.7814 20.473 87.628C21.0798 87.4746 21.6447 87.4955 22.1818 87.6838C22.7118 87.8721 23.1721 88.2069 23.5557 88.6811C23.9393 89.1623 24.2252 89.7621 24.4066 90.4875L25.5155 94.8952H25.5225ZM23.9253 93.7794L23.1721 90.7874C23.0047 90.1248 22.7118 89.6366 22.3003 89.3367C21.8888 89.0368 21.3937 88.9531 20.8148 89.0996C20.2429 89.246 19.8384 89.5459 19.6222 90.0062C19.406 90.4665 19.3711 91.0315 19.5385 91.694L20.3266 94.8325L19.12 95.1324L18.4086 92.3078C18.2552 91.694 17.9832 91.2407 17.5857 90.9617C17.1951 90.6828 16.7348 90.606 16.2117 90.7385C15.7026 90.8641 15.3539 91.1431 15.1516 91.5755C14.9494 92.0079 14.9215 92.5309 15.0819 93.1447L15.7514 95.8228L23.9184 93.7724L23.9253 93.7794Z" fill="#0B1928"/>
<path d="M23.0118 73.387L22.8932 80.7937L11.9226 80.6194L12.0412 73.2126L13.3175 73.2336L13.2198 79.1687L21.6448 79.3082L21.7424 73.3731L23.0187 73.394L23.0118 73.387ZM18.053 73.5962L17.9624 79.3919L16.6861 79.371L16.7767 73.5753L18.053 73.5962Z" fill="#0B1928"/>
<path d="M21.9237 67.5507L21.2263 66.2744C21.6517 66.0861 22.0353 65.835 22.384 65.5281C22.7327 65.2212 23.0396 64.8725 23.2976 64.475C23.5557 64.0775 23.751 63.6381 23.8835 63.1568C24.0299 62.6129 24.0857 62.1107 24.0369 61.6574C23.9881 61.204 23.8556 60.8135 23.6324 60.4927C23.4092 60.1718 23.1093 59.9696 22.7257 59.858C22.2236 59.7185 21.7633 59.8301 21.3518 60.1858C20.9403 60.5415 20.5079 61.2319 20.0546 62.2572C19.6431 63.1847 19.2316 63.9031 18.8201 64.4192C18.4156 64.9353 17.9832 65.2701 17.5299 65.4305C17.0765 65.5909 16.5883 65.5979 16.0653 65.4584C15.4515 65.291 14.9563 64.9702 14.5797 64.4889C14.2031 64.0147 13.966 63.4358 13.8684 62.7593C13.7777 62.0828 13.8335 61.3505 14.0497 60.5763C14.2938 59.6767 14.6913 58.9304 15.2353 58.3306C15.7793 57.7308 16.421 57.2566 17.1672 56.9009L17.8577 58.1563C17.2439 58.4213 16.7139 58.77 16.2745 59.2024C15.8351 59.6348 15.5143 60.2067 15.312 60.9251C15.1028 61.6713 15.1028 62.3339 15.2981 62.9058C15.4934 63.4777 15.87 63.8334 16.421 63.9868C16.7069 64.0635 16.9789 64.0426 17.23 63.924C17.4811 63.8055 17.7321 63.5614 17.9832 63.1917C18.2343 62.8291 18.5063 62.3199 18.7992 61.6643C19.2107 60.7158 19.6361 59.9766 20.0755 59.4465C20.5149 58.9165 20.9822 58.5677 21.4704 58.4004C21.9655 58.233 22.4956 58.233 23.0814 58.3934C23.7231 58.5677 24.2322 58.9025 24.6158 59.3977C24.9994 59.8929 25.2365 60.4927 25.3341 61.204C25.4318 61.9154 25.362 62.6826 25.1319 63.5125C24.8599 64.4889 24.4484 65.3049 23.8905 65.9675C23.3325 66.6301 22.67 67.1601 21.9167 67.5576L21.9237 67.5507Z" fill="#0B1928"/>
<path d="M24.2742 41.8231L19.8804 49.2647L18.7715 48.6091L23.1653 41.1675L24.2742 41.8231ZM30.7882 49.8366L30.042 51.1059L21.5752 46.1053L22.3214 44.836L30.7882 49.8366Z" fill="#0B1928"/>
<path d="M45.9294 33.971C45.2528 34.4522 44.5484 34.773 43.8161 34.9404C43.0838 35.1078 42.3515 35.1357 41.6332 35.0102C40.9148 34.8846 40.2244 34.6266 39.5897 34.2221C38.948 33.8175 38.3971 33.2805 37.9228 32.611C37.4486 31.9415 37.1278 31.244 36.9604 30.5117C36.793 29.7794 36.7721 29.0471 36.8976 28.3288C37.0231 27.6034 37.2882 26.9269 37.6927 26.2922C38.0972 25.6576 38.6342 25.0996 39.3107 24.6184C39.9872 24.1372 40.6916 23.8164 41.4239 23.649C42.1562 23.4816 42.8885 23.4537 43.6069 23.5792C44.3322 23.6978 45.0087 23.9628 45.6434 24.3604C46.2781 24.7579 46.836 25.2949 47.3033 25.9645C47.7776 26.634 48.0984 27.3314 48.2727 28.0707C48.4471 28.81 48.468 29.5353 48.3425 30.2606C48.2169 30.986 47.9519 31.6625 47.5474 32.2971C47.1429 32.9318 46.6059 33.4898 45.9294 33.971ZM45.1692 32.8969C45.8526 32.4087 46.3478 31.8368 46.6477 31.1603C46.9476 30.4838 47.0522 29.7794 46.9476 29.0401C46.85 28.2939 46.5431 27.5686 46.0409 26.8572C45.5527 26.1667 44.9669 25.6506 44.2974 25.3089C43.6278 24.9671 42.9234 24.8276 42.1841 24.8904C41.4449 24.9462 40.7405 25.2182 40.0639 25.6925C39.3944 26.1667 38.9132 26.7386 38.6063 27.4221C38.3064 28.0986 38.2018 28.81 38.2994 29.5562C38.3971 30.3025 38.69 31.0208 39.1782 31.7183C39.6664 32.4087 40.2522 32.9318 40.9288 33.2735C41.6053 33.6153 42.3097 33.7548 43.049 33.699C43.7882 33.6432 44.4926 33.3712 45.1622 32.8969H45.1692ZM49.828 31.6485L44.2625 30.6094L44.4926 29.3958L50.0512 30.442L49.835 31.6485H49.828Z" fill="#0B1928"/>
<path d="M60.9939 14.7085L63.0653 21.0203C63.5117 22.3942 63.4838 23.5798 62.9816 24.5911C62.4795 25.6024 61.5589 26.3207 60.2268 26.7601C58.9016 27.1925 57.7369 27.1507 56.7326 26.6416C55.7213 26.1255 54.996 25.1839 54.5496 23.817L52.4783 17.5052L53.8801 17.0449L55.9515 23.3567C56.2793 24.347 56.7745 25.0305 57.451 25.4001C58.1275 25.7698 58.9156 25.8046 59.8222 25.5117C60.7359 25.2118 61.3566 24.7167 61.6844 24.0122C62.0122 23.3148 62.0122 22.4709 61.6844 21.4736L59.613 15.1618L61.0009 14.7085H60.9939Z" fill="#0B1928"/>
<path d="M79.6923 23.6774L78.13 23.7471L73.7711 13.9133L74.322 13.8854L70.8628 24.068L69.3633 24.1377L73.2201 12.9858L74.8312 12.916L79.6923 23.6774ZM77.4186 20.9225L71.2882 21.2015L71.2324 19.9322L77.3628 19.6532L77.4186 20.9225Z" fill="#0B1928"/>
<path d="M92.3015 25.9093L85.5085 24.4307L87.8449 13.7112L89.2817 14.025L87.2242 23.4683L92.5735 24.633L92.2946 25.9093H92.3015Z" fill="#0B1928"/>
<path d="M99.3039 28.6567L97.9509 28.0639L102.345 18.0139L103.691 18.6067L99.297 28.6567H99.3039Z" fill="#0B1928"/>
<path d="M108.852 34.2289L107.652 33.3781L113.343 25.3576L114.543 26.2085L108.852 34.2289ZM117.382 28.4124L110.337 23.4118L111.084 22.3586L118.128 27.3592L117.382 28.4124Z" fill="#0B1928"/>
<path d="M119.02 43.9018L118.079 42.772L121.699 39.7591L123.875 32.5964L124.976 33.9146L123.038 39.8846L122.78 39.5777L129.008 38.7617L130.075 40.045L122.612 40.9098L119.013 43.9018H119.02Z" fill="#0B1928"/>
<path d="M129.112 63.5125L128.68 62.0269L138.018 54.8503L138.465 56.3847L129.907 62.7732L129.761 62.271L140.417 63.087L140.843 64.5586L129.112 63.5125Z" fill="#0B1928"/>
<path d="M131.114 80.8497L130.975 73.443L141.945 73.2407L142.085 80.6475L140.808 80.6684L140.697 74.7332L132.272 74.8867L132.383 80.8218L131.107 80.8427L131.114 80.8497ZM136.066 80.4661L135.961 74.6705L137.238 74.6495L137.349 80.4452L136.073 80.4661H136.066Z" fill="#0B1928"/>
<path d="M127.982 96.6388L128.331 95.2858L129.858 95.6833L129.754 95.8437C129.314 95.3485 129.021 94.7487 128.882 94.0374C128.742 93.333 128.777 92.5867 128.973 91.8195C129.175 91.0384 129.503 90.348 129.949 89.7482C130.395 89.1484 130.932 88.6671 131.56 88.2975C132.188 87.9279 132.878 87.6977 133.631 87.6001C134.378 87.5024 135.159 87.5582 135.954 87.7675C136.749 87.9767 137.439 88.3045 138.046 88.7578C138.646 89.2111 139.134 89.7482 139.504 90.3828C139.873 91.0105 140.111 91.701 140.208 92.4472C140.313 93.1935 140.257 93.9606 140.055 94.7557C139.818 95.6763 139.42 96.4644 138.862 97.113C138.304 97.7617 137.663 98.2499 136.923 98.5707L136.219 97.3223C136.833 97.0921 137.363 96.7364 137.816 96.2552C138.269 95.774 138.59 95.1672 138.785 94.421C138.988 93.6468 138.981 92.9075 138.771 92.1961C138.562 91.4848 138.179 90.871 137.635 90.3619C137.091 89.8528 136.4 89.4831 135.577 89.2739C134.754 89.0577 133.973 89.0438 133.234 89.2181C132.495 89.3925 131.86 89.7482 131.33 90.2643C130.8 90.7873 130.43 91.4499 130.221 92.2519C130.019 93.047 130.005 93.7933 130.193 94.4907C130.381 95.1881 130.737 95.753 131.26 96.1715L130.73 95.8925L132.753 96.4156L133.638 92.9982L134.838 93.312L133.597 98.0964L127.982 96.6388Z" fill="#0B1928"/>
<path d="M120.436 110.489L121.252 109.157L131.839 111.047L131.553 111.521L125.046 102.957L125.827 101.673L132.913 111.117L132.069 112.491L120.429 110.496L120.436 110.489ZM123.993 110.147L127.194 104.909L128.282 105.572L125.081 110.81L123.993 110.147Z" fill="#0B1928"/>
<path d="M115.596 115.859L116.649 114.896L124.028 123.014L122.856 124.074L111.753 121.389L112.06 121.11L118.414 128.105L117.361 129.067L109.982 120.95L111.153 119.89L122.27 122.561L121.95 122.847L115.596 115.852V115.859Z" fill="#0B1928"/>
<path d="M93.0898 134.8L98.2787 132.987L98.6972 134.187L93.5083 136L93.0898 134.8ZM96.5003 128.363L97.8882 127.875L101.508 138.232L94.7986 140.575L94.3801 139.375L99.6945 137.52L96.5003 128.363Z" fill="#0B1928"/>
<path d="M80.1315 131.613C80.9615 131.564 81.7287 131.662 82.44 131.913C83.1514 132.157 83.7791 132.526 84.3301 133.008C84.8811 133.489 85.3204 134.075 85.6482 134.758C85.976 135.442 86.1574 136.188 86.2062 137.011C86.255 137.834 86.1504 138.594 85.9063 139.305C85.6622 140.017 85.2925 140.645 84.7974 141.189C84.3022 141.733 83.7233 142.172 83.0468 142.493C82.3703 142.821 81.6171 143.009 80.7871 143.051C79.9572 143.099 79.19 142.995 78.4786 142.751C77.7672 142.507 77.1396 142.137 76.5886 141.656C76.0376 141.168 75.5982 140.589 75.2774 139.912C74.9496 139.236 74.7683 138.489 74.7195 137.673C74.6707 136.857 74.7753 136.09 75.0194 135.372C75.2635 134.654 75.6331 134.026 76.1213 133.482C76.6095 132.938 77.1954 132.498 77.8719 132.178C78.5484 131.85 79.3016 131.669 80.1315 131.62V131.613ZM80.2083 132.931C79.3783 132.98 78.66 133.21 78.0532 133.621C77.4464 134.033 76.9792 134.584 76.6653 135.274C76.3515 135.965 76.219 136.732 76.2678 137.576C76.3166 138.427 76.5328 139.166 76.9234 139.815C77.3139 140.456 77.837 140.951 78.4926 141.293C79.1482 141.635 79.8874 141.781 80.7174 141.733C81.5334 141.684 82.2517 141.454 82.8655 141.042C83.4792 140.631 83.9465 140.08 84.2603 139.396C84.5742 138.713 84.7067 137.945 84.6579 137.102C84.6091 136.251 84.3929 135.504 83.9953 134.856C83.5978 134.207 83.0817 133.712 82.4191 133.37C81.7566 133.029 81.0243 132.882 80.2013 132.931H80.2083Z" fill="#0B1928"/>
<path d="M63.2677 129.939C64.0697 130.148 64.7671 130.483 65.3669 130.936C65.9667 131.389 66.4549 131.934 66.8246 132.568C67.1942 133.203 67.4313 133.893 67.529 134.64C67.6266 135.386 67.5708 136.16 67.3616 136.955C67.1524 137.743 66.8246 138.441 66.3712 139.04C65.9179 139.64 65.3739 140.121 64.7392 140.491C64.1046 140.861 63.4141 141.091 62.6679 141.188C61.9216 141.286 61.1475 141.23 60.3454 141.021C59.5434 140.812 58.8459 140.477 58.2461 140.024C57.6463 139.57 57.1581 139.026 56.7885 138.392C56.4119 137.757 56.1817 137.074 56.0771 136.327C55.9795 135.581 56.0283 134.814 56.2375 134.019C56.4468 133.224 56.7746 132.526 57.2349 131.927C57.6882 131.32 58.2392 130.839 58.8738 130.469C59.5085 130.099 60.199 129.869 60.9452 129.771C61.6915 129.674 62.4656 129.73 63.2677 129.939ZM62.9329 131.215C62.1308 131.006 61.3776 130.999 60.6662 131.208C59.9548 131.41 59.3481 131.794 58.832 132.352C58.3229 132.91 57.9532 133.6 57.737 134.423C57.5208 135.246 57.4999 136.02 57.6742 136.753C57.8486 137.485 58.1903 138.113 58.7064 138.643C59.2225 139.173 59.8851 139.542 60.6872 139.752C61.4822 139.961 62.2285 139.961 62.9468 139.759C63.6582 139.556 64.272 139.18 64.7811 138.622C65.2902 138.071 65.6529 137.38 65.8691 136.557C66.0853 135.735 66.1062 134.96 65.9388 134.221C65.7645 133.482 65.4227 132.847 64.8996 132.324C64.3766 131.794 63.721 131.424 62.9329 131.222V131.215Z" fill="#0B1928"/>
<path d="M52.1365 126.117L46.3129 135.414L43.2163 133.475C42.2539 132.868 41.5285 132.143 41.0473 131.285C40.5661 130.427 40.3359 129.521 40.3638 128.565C40.3917 127.61 40.6847 126.682 41.2496 125.783C41.8145 124.883 42.5259 124.206 43.3767 123.767C44.2276 123.321 45.1482 123.132 46.1246 123.195C47.108 123.258 48.0774 123.586 49.0399 124.192L52.1365 126.131V126.117ZM50.1976 126.438L48.3494 125.28C47.6241 124.827 46.8988 124.576 46.1734 124.534C45.4481 124.492 44.7786 124.646 44.1509 125.001C43.5232 125.35 42.9932 125.88 42.5468 126.592C42.1004 127.303 41.8563 128.014 41.8145 128.726C41.7726 129.437 41.9261 130.107 42.2818 130.741C42.6375 131.376 43.1745 131.92 43.8998 132.373L45.748 133.531L50.1907 126.445L50.1976 126.438Z" fill="#0B1928"/>
<path d="M31.4018 114.206C31.1298 114.408 30.8369 114.526 30.523 114.554C30.2092 114.582 29.9023 114.54 29.6024 114.415C29.3095 114.289 29.0584 114.101 28.8631 113.836C28.6609 113.564 28.5423 113.271 28.5144 112.957C28.4865 112.643 28.5284 112.337 28.6469 112.044C28.7655 111.751 28.9608 111.5 29.2328 111.297C29.4978 111.102 29.7837 110.984 30.1046 110.949C30.4254 110.914 30.7323 110.956 31.0252 111.074C31.3181 111.193 31.5692 111.388 31.7714 111.66C31.9667 111.925 32.0853 112.211 32.1201 112.532C32.155 112.853 32.1132 113.16 31.9876 113.452C31.8621 113.745 31.6738 113.996 31.4088 114.192L31.4018 114.206Z" fill="#0B1928"/>
</g>
<defs>
<clipPath id="clip0_136_207">
<rect width="130.155" height="130.155" fill="white" transform="translate(11.9226 12.916)"/>
</clipPath>
</defs>
</svg>
