<svg width="20" height="24" viewBox="0 0 20 24" fill="none" xmlns="http://www.w3.org/2000/svg">
<path fill-rule="evenodd" clip-rule="evenodd" d="M0 8.86299C0 7.86402 0.844626 7.0542 1.88652 7.0542H18.1135C19.1554 7.0542 20 7.86402 20 8.86299V15.0826C20 19.5166 16.2511 23.1111 11.6265 23.1111H8.37349C3.74894 23.1111 0 19.5166 0 15.0826V8.86299ZM1.88652 8.60459C1.73768 8.60459 1.61702 8.72028 1.61702 8.86299V15.0826C1.61702 18.6604 4.64199 21.5607 8.37349 21.5607H11.6265C15.358 21.5607 18.383 18.6604 18.383 15.0826V8.86299C18.383 8.72028 18.2623 8.60459 18.1135 8.60459H1.88652Z" fill="#7A622F"/>
<path fill-rule="evenodd" clip-rule="evenodd" d="M7.28453 3.12761C6.60839 3.55448 6.21224 4.14533 6.21224 4.9282V12.1817C6.21224 12.6098 5.85025 12.9569 5.40373 12.9569C4.9572 12.9569 4.59521 12.6098 4.59521 12.1817V4.9282C4.59521 3.53506 5.348 2.49389 6.39526 1.83272C7.41877 1.18655 8.73242 0.888936 9.99946 0.888916C11.2665 0.888896 12.5801 1.18647 13.6037 1.83262C14.6509 2.49377 15.4037 3.53493 15.4037 4.92809V12.1817C15.4037 12.6098 15.0417 12.9569 14.5952 12.9569C14.1487 12.9569 13.7867 12.6098 13.7867 12.1817V4.92809C13.7867 4.14521 13.3905 3.55436 12.7144 3.12752C12.0145 2.68569 11.0303 2.43929 9.99948 2.4393C8.96865 2.43932 7.98442 2.68575 7.28453 3.12761Z" fill="#7A622F"/>
<path d="M11.3582 13.292C11.3582 14.138 10.6368 14.8592 9.70217 14.8592C8.76753 14.8592 8.04614 14.138 8.04614 13.292C8.04614 12.4461 8.76753 11.7249 9.70217 11.7249C10.6368 11.7249 11.3582 12.4461 11.3582 13.292Z" stroke="#7A622F"/>
</svg>
