<svg width="14" height="20" viewBox="0 0 14 20" fill="none" xmlns="http://www.w3.org/2000/svg">
<path fill-rule="evenodd" clip-rule="evenodd" d="M7 19C7.14128 19 7.27321 18.9258 7.35157 18.8024C7.73804 18.1935 8.1796 17.544 8.64595 16.8581C8.78587 16.6523 8.92802 16.4432 9.07158 16.2309C9.69053 15.3158 10.3311 14.3484 10.9092 13.3612C12.0564 11.4022 13 9.29694 13 7.30178C13 3.82658 10.3088 1 7 1C3.69123 1 1 3.82658 1 7.30178C1 9.29694 1.94363 11.4022 3.09079 13.3612C3.66891 14.3484 4.30947 15.3158 4.92842 16.2309C5.07198 16.4432 5.21413 16.6523 5.35404 16.8581C5.8204 17.544 6.26196 18.1935 6.64843 18.8024C6.72679 18.9258 6.85872 19 7 19ZM3.81062 12.8962C2.67609 10.9588 1.84507 9.03442 1.84507 7.30178C1.84507 4.31678 4.15795 1.88758 7 1.88758C9.84205 1.88758 12.1549 4.31678 12.1549 7.30178C12.1549 9.03442 11.3239 10.9588 10.1894 12.8962C9.62666 13.8572 8.99961 14.8047 8.38265 15.7169C8.24237 15.9243 8.10237 16.1302 7.96374 16.3341C7.62943 16.8259 7.30306 17.3059 7 17.7667C6.69694 17.3059 6.37057 16.8259 6.03626 16.3341C5.89763 16.1302 5.75762 15.9243 5.61735 15.7169C5.00039 14.8047 4.37334 13.8572 3.81062 12.8962Z" fill="#0B1928" stroke="#0B1928" stroke-width="0.5" stroke-miterlimit="10" stroke-linecap="round" stroke-linejoin="round"/>
<path fill-rule="evenodd" clip-rule="evenodd" d="M4 7C4 8.65451 5.34549 10 7 10C8.65451 10 10 8.65451 10 7C10 5.34549 8.65451 4 7 4C5.34549 4 4 5.34549 4 7ZM7 9.14285C5.81888 9.14285 4.85715 8.18112 4.85715 7C4.85715 5.81888 5.81888 4.85714 7 4.85714C8.18112 4.85714 9.14286 5.81888 9.14286 7C9.14286 8.18112 8.18112 9.14285 7 9.14285Z" fill="#0B1928" stroke="#0B1928" stroke-width="0.5" stroke-miterlimit="10" stroke-linecap="round" stroke-linejoin="round"/>
</svg>
